<svg xmlns="http://www.w3.org/2000/svg" version="1.1" xmlns:xlink="http://www.w3.org/1999/xlink" xmlns:svgjs="http://svgjs.dev/svgjs" viewBox="0 0 800 800"><defs><linearGradient x1="50%" y1="0%" x2="50%" y2="100%" id="nnneon-grad"><stop stop-color="hsl(185, 53%, 55%)" stop-opacity="1" offset="0%"></stop><stop stop-color="hsl(0, 73%, 55%)" stop-opacity="1" offset="100%"></stop></linearGradient><filter id="nnneon-filter" x="-100%" y="-100%" width="400%" height="400%" filterUnits="objectBoundingBox" primitiveUnits="userSpaceOnUse" color-interpolation-filters="sRGB">
	<feGaussianBlur stdDeviation="17 8" x="0%" y="0%" width="100%" height="100%" in="SourceGraphic" edgeMode="none" result="blur"></feGaussianBlur></filter><filter id="nnneon-filter2" x="-100%" y="-100%" width="400%" height="400%" filterUnits="objectBoundingBox" primitiveUnits="userSpaceOnUse" color-interpolation-filters="sRGB">
	<feGaussianBlur stdDeviation="10 17" x="0%" y="0%" width="100%" height="100%" in="SourceGraphic" edgeMode="none" result="blur"></feGaussianBlur></filter></defs><g stroke-width="44" stroke="url(#nnneon-grad)" fill="none"><path d="M380.13920895041826 113.55331736804686C392.42908533617674 106.45903190425736 407.5709756989795 106.45903190425736 419.860852084738 113.55530345020361L638.1392254364517 239.57817454030305C650.4291018222102 246.6724600040925 658.0000470036117 259.78656048488824 658.0000470036117 273.97711749462405V526.0228596748229C658.0000470036117 540.2134166845588 650.4291018222102 553.3275171653545 638.1392254364517 560.4237887113006L419.860852084738 686.4466598014001C407.5709756989795 693.5409452651895 392.42908533617674 693.5409452651895 380.13920895041826 686.4446737192433L161.86083559870445 560.4218026291439C149.57095921294598 553.3275171653545 142.0000140315446 540.2134166845588 142.0000140315446 526.0228596748229V273.97711749462405C142.0000140315446 259.78656048488824 149.57095921294598 246.6724600040925 161.86083559870445 239.57618845814636L380.13920895041826 113.55331736804686Z " filter="url(#nnneon-filter)"></path><path d="M392.13920895041826 113.55331736804686C404.42908533617674 106.45903190425736 419.5709756989795 106.45903190425736 431.860852084738 113.55530345020361L650.1392254364517 239.57817454030305C662.4291018222102 246.6724600040925 670.0000470036117 259.78656048488824 670.0000470036117 273.97711749462405V526.0228596748229C670.0000470036117 540.2134166845588 662.4291018222102 553.3275171653545 650.1392254364517 560.4237887113006L431.860852084738 686.4466598014001C419.5709756989795 693.5409452651895 404.42908533617674 693.5409452651895 392.13920895041826 686.4446737192433L173.86083559870445 560.4218026291439C161.57095921294598 553.3275171653545 154.0000140315446 540.2134166845588 154.0000140315446 526.0228596748229V273.97711749462405C154.0000140315446 259.78656048488824 161.57095921294598 246.6724600040925 173.86083559870445 239.57618845814636L392.13920895041826 113.55331736804686Z " filter="url(#nnneon-filter2)" opacity="0.25"></path><path d="M368.13920895041826 113.55331736804686C380.42908533617674 106.45903190425736 395.5709756989795 106.45903190425736 407.860852084738 113.55530345020361L626.1392254364517 239.57817454030305C638.4291018222102 246.6724600040925 646.0000470036117 259.78656048488824 646.0000470036117 273.97711749462405V526.0228596748229C646.0000470036117 540.2134166845588 638.4291018222102 553.3275171653545 626.1392254364517 560.4237887113006L407.860852084738 686.4466598014001C395.5709756989795 693.5409452651895 380.42908533617674 693.5409452651895 368.13920895041826 686.4446737192433L149.86083559870445 560.4218026291439C137.57095921294598 553.3275171653545 130.0000140315446 540.2134166845588 130.0000140315446 526.0228596748229V273.97711749462405C130.0000140315446 259.78656048488824 137.57095921294598 246.6724600040925 149.86083559870445 239.57618845814636L368.13920895041826 113.55331736804686Z " filter="url(#nnneon-filter2)" opacity="0.25"></path><path d="M380.13920895041826 113.55331736804686C392.42908533617674 106.45903190425736 407.5709756989795 106.45903190425736 419.860852084738 113.55530345020361L638.1392254364517 239.57817454030305C650.4291018222102 246.6724600040925 658.0000470036117 259.78656048488824 658.0000470036117 273.97711749462405V526.0228596748229C658.0000470036117 540.2134166845588 650.4291018222102 553.3275171653545 638.1392254364517 560.4237887113006L419.860852084738 686.4466598014001C407.5709756989795 693.5409452651895 392.42908533617674 693.5409452651895 380.13920895041826 686.4446737192433L161.86083559870445 560.4218026291439C149.57095921294598 553.3275171653545 142.0000140315446 540.2134166845588 142.0000140315446 526.0228596748229V273.97711749462405C142.0000140315446 259.78656048488824 149.57095921294598 246.6724600040925 161.86083559870445 239.57618845814636L380.13920895041826 113.55331736804686Z "></path></g></svg>