<svg xmlns="http://www.w3.org/2000/svg" version="1.1" xmlns:xlink="http://www.w3.org/1999/xlink" xmlns:svgjs="http://svgjs.dev/svgjs" viewBox="0 0 800 800"><defs><linearGradient x1="50%" y1="0%" x2="50%" y2="100%" id="nnneon-grad"><stop stop-color="hsl(185, 53%, 55%)" stop-opacity="1" offset="0%"></stop><stop stop-color="hsl(0, 73%, 55%)" stop-opacity="1" offset="100%"></stop></linearGradient><filter id="nnneon-filter" x="-100%" y="-100%" width="400%" height="400%" filterUnits="objectBoundingBox" primitiveUnits="userSpaceOnUse" color-interpolation-filters="sRGB">
	<feGaussianBlur stdDeviation="17 8" x="0%" y="0%" width="100%" height="100%" in="SourceGraphic" edgeMode="none" result="blur"></feGaussianBlur></filter><filter id="nnneon-filter2" x="-100%" y="-100%" width="400%" height="400%" filterUnits="objectBoundingBox" primitiveUnits="userSpaceOnUse" color-interpolation-filters="sRGB">
	<feGaussianBlur stdDeviation="10 17" x="0%" y="0%" width="100%" height="100%" in="SourceGraphic" edgeMode="none" result="blur"></feGaussianBlur></filter></defs><g stroke-width="40" stroke="url(#nnneon-grad)" fill="none"><path d="M387.1058619670571 214.03171522616088C395.08475458184216 209.42592912079365 404.91524541815784 209.42592912079365 412.8941380329429 214.0330046399642L554.605872670199 295.85017870039695C562.5847652849841 300.4559648057642 567.5000107031419 308.9699641489164 567.5000107031419 318.18282577345417V481.8171738943197C567.5000107031419 491.0300355188575 562.5847652849841 499.54403486200977 554.605872670199 504.15111038118016L412.8941380329429 585.968284441613C404.91524541815784 590.5740705469802 395.08475458184216 590.5740705469802 387.1058619670571 585.9669950278098L245.394127329801 504.14982096737697C237.41523471501597 499.54403486200977 232.49998929685808 491.0300355188575 232.49998929685808 481.8171738943197V318.18282577345417C232.49998929685808 308.9699641489164 237.41523471501597 300.4559648057642 245.394127329801 295.8488892865937L387.1058619670571 214.03171522616088Z " filter="url(#nnneon-filter)"></path><path d="M399.1058619670571 214.03171522616088C407.08475458184216 209.42592912079365 416.91524541815784 209.42592912079365 424.8941380329429 214.0330046399642L566.605872670199 295.85017870039695C574.5847652849841 300.4559648057642 579.5000107031419 308.9699641489164 579.5000107031419 318.18282577345417V481.8171738943197C579.5000107031419 491.0300355188575 574.5847652849841 499.54403486200977 566.605872670199 504.15111038118016L424.8941380329429 585.968284441613C416.91524541815784 590.5740705469802 407.08475458184216 590.5740705469802 399.1058619670571 585.9669950278098L257.394127329801 504.14982096737697C249.41523471501597 499.54403486200977 244.49998929685808 491.0300355188575 244.49998929685808 481.8171738943197V318.18282577345417C244.49998929685808 308.9699641489164 249.41523471501597 300.4559648057642 257.394127329801 295.8488892865937L399.1058619670571 214.03171522616088Z " filter="url(#nnneon-filter2)" opacity="0.25"></path><path d="M375.1058619670571 214.03171522616088C383.08475458184216 209.42592912079365 392.91524541815784 209.42592912079365 400.8941380329429 214.0330046399642L542.605872670199 295.85017870039695C550.5847652849841 300.4559648057642 555.5000107031419 308.9699641489164 555.5000107031419 318.18282577345417V481.8171738943197C555.5000107031419 491.0300355188575 550.5847652849841 499.54403486200977 542.605872670199 504.15111038118016L400.8941380329429 585.968284441613C392.91524541815784 590.5740705469802 383.08475458184216 590.5740705469802 375.1058619670571 585.9669950278098L233.394127329801 504.14982096737697C225.41523471501597 499.54403486200977 220.49998929685808 491.0300355188575 220.49998929685808 481.8171738943197V318.18282577345417C220.49998929685808 308.9699641489164 225.41523471501597 300.4559648057642 233.394127329801 295.8488892865937L375.1058619670571 214.03171522616088Z " filter="url(#nnneon-filter2)" opacity="0.25"></path><path d="M387.1058619670571 214.03171522616088C395.08475458184216 209.42592912079365 404.91524541815784 209.42592912079365 412.8941380329429 214.0330046399642L554.605872670199 295.85017870039695C562.5847652849841 300.4559648057642 567.5000107031419 308.9699641489164 567.5000107031419 318.18282577345417V481.8171738943197C567.5000107031419 491.0300355188575 562.5847652849841 499.54403486200977 554.605872670199 504.15111038118016L412.8941380329429 585.968284441613C404.91524541815784 590.5740705469802 395.08475458184216 590.5740705469802 387.1058619670571 585.9669950278098L245.394127329801 504.14982096737697C237.41523471501597 499.54403486200977 232.49998929685808 491.0300355188575 232.49998929685808 481.8171738943197V318.18282577345417C232.49998929685808 308.9699641489164 237.41523471501597 300.4559648057642 245.394127329801 295.8488892865937L387.1058619670571 214.03171522616088Z "></path></g></svg>